<svg width="18" height="18" viewBox="0 0 18 18" fill="none" xmlns="http://www.w3.org/2000/svg">
<path d="M16.9351 4.54242L16.9302 4.52262C16.5294 2.90232 14.7225 1.16373 13.0631 0.80203L13.0445 0.798163C10.3605 0.286171 7.63912 0.286171 4.95576 0.798163L4.93648 0.80203C3.2777 1.16373 1.47072 2.90244 1.06941 4.52262L1.06496 4.54242C0.569492 6.80514 0.569492 9.0999 1.06496 11.3626L1.06941 11.3824C1.45367 12.9335 3.126 14.5923 4.72344 15.0485V16.8571C4.72344 17.5118 5.52119 17.8333 5.97482 17.3609L7.80734 15.456C8.20484 15.4782 8.60252 15.4907 9.00008 15.4907C10.3511 15.4907 11.7027 15.3629 13.0444 15.1069L13.0631 15.1031C14.7225 14.7414 16.5294 13.0027 16.9302 11.3825L16.9351 11.3627C17.4305 9.0999 17.4305 6.80525 16.9351 4.54242ZM15.4849 11.0345C15.2173 12.0916 13.8454 13.4058 12.7553 13.6486C11.3282 13.92 9.88982 14.036 8.45287 13.9962C8.42428 13.9954 8.3968 14.0065 8.37693 14.027C8.17297 14.2363 7.03895 15.4005 7.03895 15.4005L5.61582 16.8612C5.51176 16.9697 5.32895 16.8958 5.32895 16.7461V13.7498C5.32895 13.7003 5.29361 13.6583 5.24498 13.6487C5.24469 13.6486 5.24445 13.6486 5.24416 13.6485C4.15408 13.4057 2.78264 12.0916 2.51457 11.0345C2.06861 8.98922 2.06861 6.91582 2.51457 4.87055C2.78264 3.81346 4.15408 2.49932 5.24416 2.2565C7.7365 1.78248 10.2635 1.78248 12.7554 2.2565C13.846 2.49932 15.2173 3.81346 15.4849 4.87055C15.9314 6.91588 15.9314 8.98928 15.4849 11.0345Z" fill="white"/>
<path d="M11.3709 12.4176C11.2033 12.3667 11.0437 12.3325 10.8952 12.2711C9.35826 11.6334 7.94381 10.8107 6.82344 9.54973C6.18629 8.83266 5.6876 8.02307 5.26607 7.16631C5.06615 6.76002 4.89769 6.33785 4.72596 5.91832C4.56939 5.53582 4.80002 5.14067 5.04283 4.85238C5.2707 4.58186 5.56396 4.3749 5.88154 4.22227C6.12939 4.1032 6.37385 4.17188 6.5549 4.38193C6.94619 4.83615 7.30572 5.31358 7.5967 5.8401C7.7757 6.16395 7.7266 6.55981 7.40217 6.78018C7.3233 6.83373 7.25146 6.89666 7.17805 6.95713C7.11359 7.01016 7.05301 7.06371 7.00883 7.13549C6.92814 7.2668 6.92428 7.42178 6.97619 7.56457C7.37621 8.66385 8.05045 9.51873 9.15699 9.97922C9.33406 10.0529 9.51183 10.1386 9.71586 10.1149C10.0575 10.075 10.1681 9.7002 10.4075 9.50444C10.6415 9.31313 10.9405 9.31061 11.1925 9.4701C11.4447 9.62971 11.689 9.80092 11.9319 9.97406C12.1704 10.144 12.4078 10.3101 12.6277 10.5039C12.8392 10.6901 12.912 10.9345 12.7929 11.1872C12.5749 11.6501 12.2577 12.0352 11.8001 12.281C11.6709 12.3503 11.5166 12.3727 11.3709 12.4176C11.5166 12.3727 11.2033 12.3667 11.3709 12.4176Z" fill="white"/>
<path d="M9.00389 3.69293C11.0142 3.74929 12.6654 5.08341 13.0193 7.07091C13.0796 7.40959 13.101 7.75576 13.1278 8.09953C13.1391 8.24408 13.0572 8.38142 12.9013 8.38336C12.7401 8.38529 12.6676 8.25041 12.6571 8.10597C12.6364 7.81992 12.6221 7.53252 12.5826 7.24892C12.3746 5.75132 11.1804 4.51236 9.68979 4.24652C9.46544 4.2065 9.23598 4.19601 9.0087 4.17216C8.86509 4.15711 8.677 4.14843 8.64518 3.96984C8.61852 3.82013 8.74485 3.70095 8.88741 3.69328C8.92602 3.69099 8.96499 3.69281 9.00389 3.69293C11.0143 3.74929 8.96499 3.69281 9.00389 3.69293Z" fill="white"/>
<path d="M12.059 7.65346C12.0557 7.67859 12.054 7.7376 12.0392 7.79314C11.9859 7.99494 11.6798 8.02019 11.6094 7.81658C11.5885 7.75617 11.5854 7.68738 11.5853 7.62234C11.5846 7.1966 11.4921 6.77121 11.2773 6.40072C11.0566 6.01992 10.7193 5.69994 10.3239 5.50617C10.0847 5.3891 9.82614 5.31627 9.56399 5.27297C9.44944 5.25398 9.33366 5.24256 9.21852 5.2265C9.07901 5.20711 9.00448 5.11822 9.01116 4.98076C9.01731 4.85197 9.11147 4.75922 9.25186 4.76725C9.71317 4.79338 10.1588 4.89322 10.569 5.11037C11.4031 5.55211 11.8796 6.24926 12.0187 7.18025C12.0249 7.2225 12.035 7.26422 12.0382 7.30652C12.0461 7.41094 12.0511 7.51553 12.059 7.65346C12.0557 7.67848 12.0511 7.51553 12.059 7.65346Z" fill="white"/>
<path d="M10.8089 7.60477C10.6407 7.60781 10.5507 7.51465 10.5333 7.36055C10.5213 7.25309 10.5117 7.1441 10.486 7.03945C10.4355 6.83338 10.326 6.64248 10.1527 6.51621C10.0709 6.45662 9.97813 6.4132 9.88104 6.38508C9.7577 6.3494 9.6295 6.35924 9.50651 6.32912C9.37286 6.29637 9.29891 6.18809 9.31995 6.06276C9.33905 5.94861 9.45003 5.85955 9.57477 5.86863C10.3542 5.92488 10.9112 6.32783 10.9908 7.24541C10.9964 7.31016 11.003 7.37854 10.9886 7.44059C10.9639 7.54647 10.8854 7.59961 10.8089 7.60477C10.8854 7.59961 10.6407 7.60776 10.8089 7.60477Z" fill="white"/>
</svg>
