<svg width="24.000000" height="24.000000" viewBox="0 0 24 24" fill="none" xmlns="http://www.w3.org/2000/svg" xmlns:xlink="http://www.w3.org/1999/xlink">
	<desc>
			Created with Pixso.
	</desc>
	<defs>
		<clipPath id="clip23_4914">
			<rect id="check" width="24.000000" height="24.000000" fill="white" fill-opacity="0"/>
		</clipPath>
	</defs>
	<rect id="check" width="24.000000" height="24.000000" fill="#FFFFFF" fill-opacity="0"/>
	<g clip-path="url(#clip23_4914)">
		<path id="Vector" d="M14.72 8.79L10.43 13.09L8.78 11.43C8.69 11.33 8.58 11.25 8.45 11.19C8.33 11.13 8.19 11.09 8.05 11.09C7.92 11.08 7.78 11.1 7.65 11.15C7.52 11.2 7.41 11.28 7.31 11.38C7.21 11.48 7.13 11.59 7.08 11.72C7.03 11.85 7.01 11.99 7.02 12.12C7.02 12.26 7.06 12.4 7.12 12.52C7.18 12.65 7.26 12.76 7.37 12.85L9.71 15.21C9.81 15.3 9.92 15.37 10.04 15.42C10.16 15.47 10.29 15.5 10.43 15.5C10.69 15.49 10.94 15.39 11.13 15.21L16.12 10.21C16.22 10.11 16.29 10 16.34 9.88C16.39 9.76 16.42 9.63 16.42 9.5C16.42 9.36 16.39 9.23 16.34 9.11C16.29 8.99 16.22 8.88 16.12 8.79C15.94 8.6 15.68 8.49 15.42 8.49C15.16 8.49 14.9 8.6 14.72 8.79ZM12 2C10.02 2 8.08 2.58 6.44 3.68C4.79 4.78 3.51 6.34 2.76 8.17C2 10 1.8 12.01 2.19 13.95C2.57 15.89 3.53 17.67 4.92 19.07C6.32 20.46 8.1 21.42 10.04 21.8C11.98 22.19 13.99 21.99 15.82 21.23C17.65 20.48 19.21 19.2 20.31 17.55C21.41 15.91 22 13.97 22 12C22 10.68 21.74 9.38 21.23 8.17C20.73 6.95 19.99 5.85 19.07 4.92C18.14 4 17.04 3.26 15.82 2.76C14.61 2.25 13.31 2 12 2ZM12 20C10.41 20 8.87 19.53 7.55 18.65C6.23 17.77 5.21 16.52 4.6 15.06C4 13.59 3.84 11.99 4.15 10.43C4.46 8.88 5.22 7.46 6.34 6.34C7.46 5.22 8.88 4.46 10.43 4.15C11.99 3.84 13.59 4 15.06 4.6C16.52 5.21 17.77 6.23 18.65 7.55C19.53 8.87 20 10.41 20 12C20 14.12 19.15 16.15 17.65 17.65C16.15 19.15 14.12 20 12 20Z" fill="#82B09D" fill-opacity="1.000000" fill-rule="nonzero"/>
	</g>
</svg>
