<svg width="18" height="15" viewBox="0 0 18 15" fill="none" xmlns="http://www.w3.org/2000/svg">
<path d="M17.2989 0.62861L14.6198 14.1365C14.6198 14.1365 14.2451 15.0733 13.2147 14.6236L7.03214 9.88361L4.78401 8.79705L0.99956 7.52299C0.99956 7.52299 0.418778 7.31697 0.362528 6.86732C0.306395 6.41767 1.01831 6.17416 1.01831 6.17416L16.0624 0.272595C16.0624 0.272595 17.2989 -0.270686 17.2989 0.62861Z" fill="white"/>
<path d="M6.55711 13.9848C6.55711 13.9848 6.37664 13.9679 6.15176 13.2559C5.92699 12.544 4.78418 8.79702 4.78418 8.79702L13.8705 3.0267C13.8705 3.0267 14.3952 2.70819 14.3764 3.0267C14.3764 3.0267 14.4701 3.08284 14.1891 3.3451C13.908 3.60748 7.05105 9.7712 7.05105 9.7712" fill="#D2E5F1"/>
<path d="M9.40242 11.701L6.95695 13.9306C6.95695 13.9306 6.76582 14.0757 6.55664 13.9848L7.02492 9.84325" fill="#B5CFE4"/>
</svg>
