<svg width="32.000000" height="25.000000" viewBox="0 0 32 25" fill="none" xmlns="http://www.w3.org/2000/svg" xmlns:xlink="http://www.w3.org/1999/xlink">
	<desc>
			Created with Pixso.
	</desc>
	<defs/>
	<path id="Vector" d="M5.25 24.78L5.25 23.13C5.25 22.5 4.86 22.09 4.21 22.09C3.88 22.09 3.52 22.2 3.28 22.55C3.08 22.25 2.81 22.09 2.4 22.09C2.13 22.09 1.85 22.17 1.63 22.47L1.63 22.14L1.06 22.14L1.06 24.78L1.63 24.78L1.63 23.32C1.63 22.85 1.88 22.64 2.26 22.64C2.65 22.64 2.84 22.88 2.84 23.32L2.84 24.78L3.41 24.78L3.41 23.32C3.41 22.85 3.69 22.64 4.04 22.64C4.42 22.64 4.62 22.88 4.62 23.32L4.62 24.78L5.25 24.78ZM13.76 22.14L12.83 22.14L12.83 21.34L12.25 21.34L12.25 22.14L11.73 22.14L11.73 22.66L12.25 22.66L12.25 23.87C12.25 24.48 12.5 24.83 13.16 24.83C13.4 24.83 13.67 24.75 13.87 24.64L13.7 24.15C13.54 24.26 13.35 24.28 13.21 24.28C12.93 24.28 12.83 24.12 12.83 23.84L12.83 22.66L13.76 22.66L13.76 22.14ZM18.63 22.09C18.3 22.09 18.08 22.25 17.94 22.47L17.94 22.14L17.37 22.14L17.37 24.78L17.94 24.78L17.94 23.29C17.94 22.85 18.13 22.61 18.49 22.61C18.6 22.61 18.74 22.64 18.85 22.66L19.01 22.11C18.9 22.09 18.74 22.09 18.63 22.09ZM11.27 22.36C10.99 22.17 10.61 22.09 10.2 22.09C9.54 22.09 9.1 22.42 9.1 22.94C9.1 23.38 9.43 23.62 10.01 23.71L10.28 23.73C10.58 23.79 10.75 23.87 10.75 24.01C10.75 24.2 10.53 24.34 10.14 24.34C9.76 24.34 9.46 24.2 9.27 24.06L9 24.5C9.3 24.72 9.71 24.83 10.12 24.83C10.88 24.83 11.32 24.48 11.32 23.98C11.32 23.51 10.97 23.27 10.42 23.18L10.14 23.16C9.9 23.13 9.71 23.07 9.71 22.91C9.71 22.72 9.9 22.61 10.2 22.61C10.53 22.61 10.86 22.75 11.02 22.83L11.27 22.36ZM26.54 22.09C26.21 22.09 25.99 22.25 25.85 22.47L25.85 22.14L25.28 22.14L25.28 24.78L25.85 24.78L25.85 23.29C25.85 22.85 26.04 22.61 26.4 22.61C26.51 22.61 26.65 22.64 26.75 22.66L26.92 22.11C26.81 22.09 26.65 22.09 26.54 22.09ZM19.2 23.46C19.2 24.26 19.75 24.83 20.6 24.83C20.98 24.83 21.25 24.75 21.53 24.53L21.25 24.06C21.04 24.23 20.82 24.31 20.57 24.31C20.1 24.31 19.78 23.98 19.78 23.46C19.78 22.96 20.1 22.64 20.57 22.61C20.82 22.61 21.04 22.69 21.25 22.85L21.53 22.39C21.25 22.17 20.98 22.09 20.6 22.09C19.75 22.09 19.2 22.66 19.2 23.46ZM24.51 23.46L24.51 22.14L23.94 22.14L23.94 22.47C23.75 22.22 23.47 22.09 23.11 22.09C22.38 22.09 21.8 22.66 21.8 23.46C21.8 24.26 22.38 24.83 23.11 24.83C23.5 24.83 23.77 24.7 23.94 24.45L23.94 24.78L24.51 24.78L24.51 23.46ZM22.4 23.46C22.4 22.99 22.7 22.61 23.2 22.61C23.66 22.61 23.99 22.96 23.99 23.46C23.99 23.93 23.66 24.31 23.2 24.31C22.7 24.28 22.4 23.93 22.4 23.46ZM15.53 22.09C14.77 22.09 14.22 22.64 14.22 23.46C14.22 24.28 14.77 24.83 15.56 24.83C15.95 24.83 16.33 24.72 16.63 24.48L16.36 24.06C16.14 24.23 15.86 24.34 15.59 24.34C15.23 24.34 14.88 24.17 14.8 23.71L16.74 23.71L16.74 23.49C16.77 22.64 16.27 22.09 15.53 22.09ZM15.53 22.58C15.89 22.58 16.14 22.8 16.19 23.21L14.82 23.21C14.88 22.85 15.12 22.58 15.53 22.58ZM29.79 23.46L29.79 21.1L29.22 21.1L29.22 22.47C29.03 22.22 28.75 22.09 28.4 22.09C27.66 22.09 27.08 22.66 27.08 23.46C27.08 24.26 27.66 24.83 28.4 24.83C28.78 24.83 29.05 24.7 29.22 24.45L29.22 24.78L29.79 24.78L29.79 23.46ZM27.68 23.46C27.68 22.99 27.99 22.61 28.48 22.61C28.94 22.61 29.27 22.96 29.27 23.46C29.27 23.93 28.94 24.31 28.48 24.31C27.99 24.28 27.68 23.93 27.68 23.46ZM8.48 23.46L8.48 22.14L7.9 22.14L7.9 22.47C7.71 22.22 7.43 22.09 7.08 22.09C6.34 22.09 5.77 22.66 5.77 23.46C5.77 24.26 6.34 24.83 7.08 24.83C7.46 24.83 7.74 24.7 7.9 24.45L7.9 24.78L8.48 24.78L8.48 23.46ZM6.34 23.46C6.34 22.99 6.64 22.61 7.13 22.61C7.6 22.61 7.93 22.96 7.93 23.46C7.93 23.93 7.6 24.31 7.13 24.31C6.64 24.28 6.34 23.93 6.34 23.46Z" fill="#000000" fill-opacity="1.000000" fill-rule="nonzero"/>
	<path id="Vector" d="M19.61 2L11 2L11 17.55L19.61 17.55L19.61 2Z" fill="#FF5F00" fill-opacity="1.000000" fill-rule="nonzero"/>
	<path id="Vector" d="M11.62 9.89C11.62 6.73 13.1 3.92 15.37 2.11C13.7 0.79 11.59 0 9.3 0C3.85 0 -0.56 4.42 -0.56 9.89C-0.56 15.35 3.85 19.78 9.3 19.78C11.59 19.78 13.7 18.98 15.37 17.66C13.1 15.88 11.62 13.05 11.62 9.89Z" fill="#EB001B" fill-opacity="1.000000" fill-rule="nonzero"/>
	<path id="Vector" d="M31.32 9.89C31.32 15.35 26.92 19.78 21.47 19.78C19.17 19.78 17.07 18.98 15.4 17.66C17.7 15.85 19.15 13.05 19.15 9.89C19.15 6.73 17.67 3.92 15.4 2.11C17.07 0.79 19.17 0 21.47 0C26.92 0 31.32 4.45 31.32 9.89Z" fill="#F79E1B" fill-opacity="1.000000" fill-rule="nonzero"/>
</svg>
