<svg width="48.000000" height="32.000000" viewBox="0 0 48 32" fill="none" xmlns="http://www.w3.org/2000/svg" xmlns:xlink="http://www.w3.org/1999/xlink">
	<desc>
			Created with Pixso.
	</desc>
	<defs>
		<clipPath id="clip157_4713">
			<rect id="mono-bank-logo" width="48.000000" height="32.000000" fill="white" fill-opacity="0"/>
		</clipPath>
	</defs>
	<rect id="mono-bank-logo" width="48.000000" height="32.000000" fill="#FFFFFF" fill-opacity="0"/>
	<g clip-path="url(#clip157_4713)">
		<path id="Vector" d="M15.99 25.56C15.89 25.53 15.79 25.51 15.69 25.48C15.14 25.33 14.66 25.07 14.27 24.66C13.58 23.97 13.22 23.14 13.18 22.17C13.17 21.8 13.22 21.44 13.3 21.09C13.41 20.67 13.56 20.28 13.77 19.9C14.1 19.31 14.53 18.78 15.04 18.32C15.42 17.98 15.84 17.67 16.29 17.41C16.71 17.17 17.1 16.88 17.47 16.57C17.94 16.19 18.38 15.77 18.81 15.34C19.2 14.96 19.58 14.58 19.98 14.23C20.28 13.96 20.59 13.7 20.93 13.47C21.35 13.19 21.8 12.97 22.31 12.86C22.68 12.78 23.06 12.77 23.44 12.83C23.87 12.89 24.29 13.01 24.69 13.18C25.3 13.45 25.8 13.85 26.2 14.38C26.47 14.74 26.69 15.14 26.88 15.55C27.08 15.98 27.26 16.42 27.45 16.86C27.66 17.36 27.88 17.84 28.14 18.32C28.41 18.79 28.71 19.23 29.05 19.65C29.46 20.16 29.81 20.7 30.08 21.29C30.31 21.79 30.49 22.32 30.57 22.87C30.64 23.3 30.65 23.73 30.6 24.16C30.51 24.81 30.29 25.41 29.89 25.94C29.51 26.43 29.04 26.8 28.47 27.06C28.06 27.25 27.62 27.37 27.17 27.4C27 27.41 26.84 27.41 26.68 27.4C26.66 27.4 26.64 27.4 26.61 27.4C26.59 27.41 26.57 27.39 26.55 27.39C26.53 27.39 26.51 27.38 26.49 27.39C26.35 27.37 26.22 27.34 26.08 27.32C26.07 27.3 26.05 27.31 26.03 27.3C26.01 27.3 26 27.3 25.99 27.3C25.97 27.29 25.96 27.29 25.95 27.29C25.6 27.22 25.27 27.09 24.95 26.95C24.4 26.72 23.87 26.45 23.33 26.21C22.89 26.01 22.44 25.84 21.98 25.71C21.66 25.61 21.33 25.55 21 25.5C20.74 25.47 20.47 25.46 20.21 25.47C19.68 25.47 19.16 25.52 18.64 25.57C18.08 25.62 17.53 25.67 16.97 25.66C16.75 25.66 16.52 25.65 16.3 25.61C16.25 25.6 16.21 25.6 16.16 25.59C16.1 25.58 16.04 25.58 15.99 25.56ZM29.56 5.42C30.28 5.64 30.77 6.1 31.1 6.76C31.32 7.21 31.42 7.69 31.45 8.18C31.48 8.61 31.44 9.04 31.35 9.46C31.19 10.23 30.87 10.93 30.4 11.57C30.08 12.02 29.69 12.4 29.24 12.71C28.83 12.98 28.39 13.18 27.9 13.27C27.56 13.33 27.22 13.33 26.88 13.25C26.29 13.12 25.83 12.8 25.48 12.32C25.18 11.91 25.01 11.45 24.92 10.95C24.86 10.61 24.85 10.26 24.87 9.91C24.89 9.67 24.92 9.44 24.97 9.2C25.08 8.65 25.28 8.13 25.56 7.64C25.85 7.11 26.22 6.65 26.68 6.25C27.06 5.92 27.49 5.66 27.97 5.49C28.33 5.37 28.7 5.32 29.08 5.34C29.28 5.35 29.37 5.37 29.56 5.42ZM12.13 11.14C12.18 10.92 12.26 10.71 12.36 10.51C12.55 10.11 12.8 9.76 13.15 9.49C13.54 9.19 13.98 9.02 14.48 9.01C14.89 9 15.27 9.1 15.62 9.28C16.04 9.49 16.38 9.78 16.67 10.14C17.12 10.68 17.41 11.31 17.55 12C17.63 12.36 17.66 12.72 17.65 13.09C17.65 13.27 17.63 13.44 17.6 13.62C17.55 13.96 17.46 14.28 17.31 14.59C17.12 15 16.87 15.36 16.5 15.64C16.09 15.97 15.62 16.13 15.09 16.12C14.7 16.12 14.34 16.01 13.99 15.83C13.53 15.59 13.16 15.25 12.85 14.84C12.56 14.44 12.34 14 12.19 13.52C12.05 13.05 11.98 12.58 12 12.09C12 12 12 11.91 12.01 11.83C12 11.79 12.01 11.75 12.01 11.71C12.01 11.69 12.02 11.68 12.02 11.66C12.02 11.64 12.03 11.62 12.02 11.6C12.04 11.5 12.06 11.39 12.08 11.29C12.1 11.27 12.1 11.23 12.11 11.2C12.11 11.18 12.11 11.16 12.13 11.14ZM17.83 7.11C17.94 6.5 18.13 5.96 18.43 5.47C18.66 5.09 18.94 4.76 19.3 4.5C19.68 4.21 20.11 4.04 20.59 4C21.08 3.97 21.52 4.08 21.94 4.31C22.31 4.52 22.61 4.8 22.87 5.14C23.27 5.67 23.52 6.27 23.66 6.91C23.75 7.32 23.79 7.74 23.78 8.16C23.77 8.4 23.75 8.64 23.71 8.87C23.67 9.17 23.59 9.46 23.49 9.75C23.28 10.34 22.97 10.87 22.5 11.31C22.21 11.58 21.88 11.79 21.5 11.92C21.08 12.06 20.64 12.07 20.21 11.96C19.82 11.86 19.47 11.67 19.17 11.41C18.77 11.07 18.47 10.66 18.24 10.19C17.97 9.64 17.83 9.05 17.78 8.44C17.75 8.11 17.75 7.78 17.79 7.44C17.8 7.32 17.81 7.19 17.83 7.11ZM35.32 15.53C35.32 15.55 35.31 15.57 35.31 15.6C35.17 16.18 34.91 16.71 34.56 17.2C34.28 17.58 33.95 17.91 33.57 18.19C33.08 18.55 32.54 18.8 31.94 18.9C31.58 18.97 31.22 18.96 30.86 18.88C30.33 18.76 29.89 18.49 29.56 18.06C29.29 17.7 29.14 17.3 29.08 16.87C29.03 16.48 29.05 16.09 29.13 15.7C29.31 14.85 29.72 14.12 30.32 13.5C30.52 13.29 30.75 13.1 30.99 12.93C31.49 12.59 32.03 12.35 32.63 12.27C32.98 12.22 33.32 12.23 33.66 12.32C34.17 12.45 34.59 12.72 34.91 13.14C35.19 13.52 35.34 13.96 35.39 14.42C35.42 14.68 35.42 14.94 35.38 15.19C35.37 15.22 35.37 15.24 35.37 15.27C35.35 15.35 35.33 15.44 35.32 15.53Z" fill="#040404" fill-opacity="1.000000" fill-rule="nonzero"/>
	</g>
</svg>
