<svg width="48.000000" height="32.000000" viewBox="0 0 48 32" fill="none" xmlns="http://www.w3.org/2000/svg" xmlns:xlink="http://www.w3.org/1999/xlink">
	<desc>
			Created with Pixso.
	</desc>
	<defs>
		<clipPath id="clip157_4734">
			<rect id="privat-pay-logo" width="48.000000" height="32.000000" fill="white" fill-opacity="0"/>
		</clipPath>
	</defs>
	<rect id="privat-pay-logo" width="48.000000" height="32.000000" fill="#FFFFFF" fill-opacity="0"/>
	<g clip-path="url(#clip157_4734)">
		<path id="Vector" d="M11.24 6C5.58 6 1 10.58 1 16.24C1 21.89 5.58 26.48 11.24 26.48C16.89 26.48 21.48 21.89 21.48 16.24C21.48 10.58 16.89 6 11.24 6ZM11.24 25.35C6.2 25.35 2.12 21.27 2.12 16.24C2.12 11.2 6.2 7.12 11.24 7.12C16.27 7.12 20.35 11.2 20.35 16.24C20.35 21.27 16.27 25.35 11.24 25.35Z" fill="#8DC641" fill-opacity="1.000000" fill-rule="nonzero"/>
		<path id="Vector" d="M14.77 13.87L12.52 17.3L14.77 17.3L14.77 13.87ZM15.62 12.48L15.62 17.31L16.61 17.31L16.61 18.18L15.62 18.18L15.62 19.99L14.76 19.99L14.76 18.18L11.58 18.18L11.58 17.24L14.79 12.49L15.62 12.48ZM10.64 19.11L10.64 19.98L5.86 19.98L5.86 19.95C5.91 19.13 6.11 18.53 6.51 18.04C6.83 17.63 7.23 17.32 8.03 16.81C8.03 16.81 8.31 16.62 8.4 16.57C8.83 16.28 9.11 16.06 9.33 15.8C9.61 15.47 9.75 15.11 9.75 14.69C9.75 13.87 9.18 13.31 8.37 13.31C7.43 13.31 6.94 14.05 6.92 15.15L6.92 15.17L6.07 15.17L6.07 15.15L6.06 14.96C6.06 13.47 7 12.48 8.42 12.48C9.8 12.48 10.7 13.34 10.7 14.67C10.7 15.35 10.46 15.9 10.01 16.38C9.66 16.75 9.31 17 8.52 17.49C8.51 17.5 8.5 17.51 8.49 17.51C8.45 17.53 8.28 17.64 8.23 17.67C7.85 17.9 7.62 18.07 7.41 18.27C7.16 18.51 7 18.78 6.92 19.1L10.64 19.1L10.64 19.11Z" fill="#000000" fill-opacity="1.000000" fill-rule="nonzero"/>
		<path id="Vector" d="M25.9 11.21L30.08 11.21C31.12 11.21 31.94 11.45 32.54 11.94C33.14 12.44 33.44 13.17 33.44 14.14C33.44 15.06 33.16 15.79 32.6 16.33C32.04 16.86 31.28 17.13 30.31 17.13L27.59 17.13L27.59 20.85L25.9 20.85L25.9 11.21ZM27.59 12.62L27.59 15.78L29.95 15.78C31.18 15.78 31.79 15.25 31.79 14.2C31.79 13.15 31.13 12.63 29.8 12.63L27.59 12.62Z" fill="#000000" fill-opacity="1.000000" fill-rule="nonzero"/>
		<path id="Vector" d="M34.3 16.02C34.46 14.44 35.48 13.66 37.36 13.66C38.23 13.66 38.93 13.82 39.45 14.17C39.98 14.51 40.23 15.05 40.23 15.77L40.23 19.31C40.23 19.51 40.25 19.65 40.3 19.72C40.35 19.79 40.45 19.83 40.59 19.83C40.7 19.83 40.82 19.82 40.94 19.81L40.94 20.89C40.54 20.99 40.21 21.05 39.94 21.05C39.29 21.05 38.9 20.77 38.81 20.21C38.22 20.77 37.4 21.05 36.35 21.05C35.63 21.05 35.06 20.86 34.63 20.49C34.21 20.11 33.99 19.61 33.99 18.96C33.99 18.76 34.01 18.57 34.06 18.41C34.1 18.24 34.15 18.09 34.22 17.96C34.27 17.83 34.37 17.72 34.5 17.61C34.63 17.49 34.74 17.41 34.83 17.33C34.92 17.26 35.06 17.2 35.25 17.13C35.45 17.07 35.59 17.02 35.69 16.99C35.78 16.96 35.94 16.93 36.18 16.89C36.41 16.86 36.58 16.82 36.65 16.81C36.73 16.8 36.89 16.78 37.13 16.75C37.68 16.68 38.06 16.62 38.25 16.57C38.45 16.52 38.59 16.44 38.66 16.34C38.73 16.27 38.76 16.1 38.76 15.84C38.76 15.14 38.28 14.78 37.32 14.78C36.82 14.78 36.45 14.88 36.21 15.07C35.98 15.26 35.82 15.58 35.76 16.03L34.3 16.03L34.3 16.02ZM38.74 17.35C38.61 17.41 38.48 17.47 38.33 17.52C38.17 17.57 38.05 17.6 37.95 17.61C37.85 17.63 37.71 17.65 37.5 17.68C37.3 17.7 37.17 17.73 37.1 17.73C36.91 17.76 36.77 17.79 36.66 17.81C36.54 17.83 36.41 17.87 36.25 17.92C36.09 17.97 35.98 18.04 35.89 18.12C35.8 18.2 35.73 18.3 35.66 18.43C35.6 18.56 35.57 18.72 35.57 18.89C35.57 19.23 35.68 19.49 35.9 19.66C36.12 19.85 36.42 19.93 36.82 19.93C37.51 19.93 38.04 19.75 38.41 19.38C38.61 19.17 38.72 18.77 38.72 18.17L38.72 17.35L38.74 17.35Z" fill="#000000" fill-opacity="1.000000" fill-rule="nonzero"/>
		<path id="Vector" d="M41.52 13.7L44.16 20.91L43.91 21.69C43.81 22.03 43.34 22.55 42.79 22.58L42.06 22.58L42.06 24.04L42.99 24.04C44.06 24.04 45 23.35 45.32 22.33L45.68 21.14L45.68 21.14L48 13.7L46.3 13.7L44.86 18.32L43.24 13.7L41.52 13.7Z" fill="#000000" fill-opacity="1.000000" fill-rule="nonzero"/>
	</g>
</svg>
