<svg width="48.000000" height="32.000000" viewBox="0 0 48 32" fill="none" xmlns="http://www.w3.org/2000/svg" xmlns:xlink="http://www.w3.org/1999/xlink">
	<desc>
			Created with Pixso.
	</desc>
	<defs>
		<clipPath id="clip157_4723">
			<rect id="privaty-credit-logo" width="48.000000" height="32.000000" fill="white" fill-opacity="0"/>
		</clipPath>
	</defs>
	<rect id="privaty-credit-logo" width="48.000000" height="32.000000" fill="#FFFFFF" fill-opacity="0"/>
	<g clip-path="url(#clip157_4723)">
		<path id="Vector" d="M26.51 28C22.12 28 18.25 25.6 16.05 22.18C16.69 21.43 26.64 16.25 26.64 16.25L20.44 5.64C22.12 4.63 24.32 4 26.51 4C33.24 4 38.66 9.43 38.66 16C38.66 22.56 33.24 28 26.51 28Z" fill="#FFD700" fill-opacity="1.000000" fill-rule="nonzero"/>
		<path id="Vector" d="M15.66 4.63L21.74 15.24C21.74 15.24 11.66 20.54 11.14 21.18C10.1 19.41 9.33 17.26 9.33 14.99C9.46 10.56 11.91 6.65 15.66 4.63Z" fill="#00B200" fill-opacity="1.000000" fill-rule="nonzero"/>
	</g>
</svg>
