<svg width="40.000000" height="13.000000" viewBox="0 0 40 13" fill="none" xmlns="http://www.w3.org/2000/svg" xmlns:xlink="http://www.w3.org/1999/xlink">
	<desc>
			Created with Pixso.
	</desc>
	<defs/>
	<path id="Vector" d="M7.77 -0.69L4.29 8.33L3.95 6.46C3.1 4.18 1.24 1.83 -0.97 0.93L2.25 12.56L5.99 12.56L11.58 -0.69L7.77 -0.69ZM10.74 12.56L12.94 -0.69L16.5 -0.69L14.3 12.56L10.74 12.56ZM31.94 7.84C32.2 7.11 33.38 4.1 33.38 4.1C33.38 4.1 33.64 3.37 33.89 2.8L34.15 3.94L35 7.76L31.94 7.76L31.94 7.84ZM36.27 -0.69L33.55 -0.69C32.71 -0.69 32.03 -0.45 31.69 0.45L26.43 12.56L30.16 12.56C30.16 12.56 30.75 10.93 30.92 10.52C31.35 10.52 35 10.52 35.5 10.52C35.59 11.01 35.93 12.47 35.93 12.47L39.24 12.47C39.15 12.56 36.27 -0.69 36.27 -0.69ZM27.19 -0.37C26.51 -0.61 25.41 -0.94 23.97 -0.94C20.49 -0.94 17.95 0.85 17.95 3.45C17.95 5.32 19.73 6.46 21.08 7.03C22.44 7.68 22.95 8.09 22.95 8.65C22.95 9.55 21.85 9.95 20.83 9.95C19.39 9.95 18.62 9.79 17.52 9.22L17.01 9.06L16.5 11.99C17.35 12.39 18.88 12.64 20.49 12.72C24.22 12.72 26.68 10.93 26.68 8.17C26.68 6.62 25.75 5.48 23.71 4.59C22.44 3.94 21.68 3.53 21.76 2.96C21.76 2.4 22.44 1.83 23.8 1.83C24.73 1.83 25.66 1.99 26.43 2.31L26.77 2.48C26.68 2.48 27.19 -0.37 27.19 -0.37Z" fill="#1B548E" fill-opacity="1.000000" fill-rule="nonzero"/>
</svg>
